<?xml version="1.0" standalone="no"?>
<!DOCTYPE svg PUBLIC "-//W3C//DTD SVG 20010904//EN"
 "http://www.w3.org/TR/2001/REC-SVG-20010904/DTD/svg10.dtd">
<svg version="1.0" xmlns="http://www.w3.org/2000/svg"
 width="553.000000pt" height="149.000000pt" viewBox="0 0 553.000000 149.000000"
 preserveAspectRatio="xMidYMid meet">

<g transform="translate(0.000000,149.000000) scale(0.100000,-0.100000)"
fill="#000000" stroke="none">
<path d="M2212 1285 c-76 -33 -126 -136 -104 -216 l9 -35 -51 18 c-88 30 -183
21 -249 -24 -25 -18 -28 -18 -44 -3 -26 27 -59 35 -138 35 l-73 0 -16 -34 c-9
-19 -16 -40 -16 -48 -1 -7 -7 1 -15 19 -18 42 -65 65 -146 71 -93 6 -176 -18
-193 -58 -11 -28 -12 -28 -24 -9 -25 40 -89 59 -199 59 -72 0 -103 -4 -106
-12 -2 -7 -7 5 -11 27 -4 22 -14 55 -21 73 l-14 32 -249 0 c-249 0 -348 -9
-389 -36 l-23 -14 0 -344 0 -344 25 -31 c57 -67 207 -82 311 -30 l49 24 3 88
3 87 95 0 c52 0 104 5 114 10 21 11 50 96 50 144 -1 17 -9 55 -19 84 -13 38
-15 52 -6 52 7 0 18 7 26 16 11 14 15 7 31 -48 10 -37 17 -98 18 -150 0 -162
38 -252 125 -304 65 -38 172 -45 238 -16 45 20 46 20 84 1 88 -45 208 -11 250
70 21 40 23 42 23 17 0 -37 46 -82 101 -96 76 -21 227 5 251 43 4 7 8 81 8
165 l0 152 43 0 c54 0 146 27 149 43 1 7 4 -53 7 -133 7 -162 16 -188 82 -242
74 -60 219 -46 274 26 37 49 55 176 25 176 -17 0 -30 67 -30 154 1 82 2 88 14
66 7 -14 21 -61 31 -105 22 -99 53 -170 92 -212 l31 -33 -33 0 c-39 0 -60 -26
-76 -97 -16 -68 1 -121 50 -166 64 -58 164 -73 272 -41 135 40 209 140 269
364 27 98 29 102 29 57 2 -87 46 -158 126 -199 56 -29 168 -36 235 -14 45 15
53 15 80 1 44 -23 119 -19 171 8 51 27 84 78 94 145 6 38 3 50 -17 76 -20 28
-23 45 -28 161 -4 110 -9 138 -29 178 -38 78 -105 118 -229 137 -118 19 -324
-21 -344 -65 -9 -21 -10 -21 -42 11 -49 49 -150 68 -236 44 -53 -15 -72 -32
-80 -76 -7 -38 -7 -38 -17 -14 -14 32 -50 66 -86 79 -16 6 -77 11 -136 11
l-108 0 -16 -37 c-8 -21 -18 -46 -21 -57 -5 -14 -9 -16 -20 -7 -12 10 -11 18
9 47 63 93 35 217 -60 271 -47 27 -132 30 -183 8z m186 -33 c63 -46 86 -133
53 -206 -12 -27 -26 -46 -36 -46 -15 0 -15 2 -1 22 11 15 12 25 5 34 -7 8 -7
14 1 19 16 10 12 28 -5 21 -12 -4 -14 -2 -6 11 5 10 5 26 0 41 -5 13 -7 28 -3
33 3 5 2 9 -3 8 -22 -4 -35 2 -30 15 4 10 1 13 -9 9 -9 -3 -12 0 -9 9 6 14 -2
16 -77 20 -31 1 -35 4 -28 18 14 27 106 21 148 -8z m-1594 -139 c19 -54 20
-117 5 -162 -9 -24 -14 -29 -24 -21 -10 8 -15 7 -19 -2 -3 -7 -3 -2 1 12 11
41 11 64 1 77 -5 7 -6 17 -2 24 4 7 2 10 -7 7 -8 -3 -14 -14 -14 -25 0 -12 -4
-25 -8 -29 -4 -5 -5 -1 -1 9 3 9 2 17 -4 17 -5 0 -13 -12 -17 -27 -4 -16 -15
-36 -26 -46 -22 -21 -26 -6 -4 17 8 8 15 19 15 24 0 5 13 29 29 53 17 25 26
46 20 50 -5 3 -7 13 -4 22 7 16 -9 18 -32 4 -7 -5 -13 -4 -13 1 0 5 -7 9 -15
9 -8 0 -12 -4 -10 -8 3 -3 -2 -12 -9 -19 -12 -9 -17 -7 -25 8 -12 22 -42 20
-62 -4 -14 -17 2 -19 19 -2 6 6 15 8 19 4 9 -9 -41 -56 -60 -56 -8 0 -22 -9
-32 -20 -22 -25 -44 -27 -23 -2 8 9 18 25 21 34 4 12 12 16 24 11 17 -6 17 -5
-1 15 -18 20 -43 21 -31 1 4 -5 1 -9 -4 -9 -6 0 -11 -11 -11 -25 0 -14 -5 -25
-11 -25 -6 0 -8 -8 -4 -19 4 -14 0 -21 -13 -26 -11 -3 -32 -17 -46 -30 -14
-13 -26 -20 -26 -16 0 12 51 61 62 61 6 0 7 7 4 16 -4 9 -1 23 5 30 6 8 9 20
6 27 -3 8 7 21 24 31 29 17 41 39 17 31 -7 -2 -26 -7 -42 -9 -16 -3 -39 -15
-52 -27 -20 -18 -24 -20 -24 -6 0 9 5 19 10 22 6 3 10 12 10 18 0 8 -3 7 -9
-2 -5 -8 -18 -12 -30 -8 -12 3 -23 1 -26 -3 -3 -4 -14 -6 -24 -3 -10 3 -22 0
-25 -6 -4 -6 -14 -11 -22 -11 -8 0 -13 4 -10 8 3 4 -11 8 -31 8 -33 -1 -60 19
-31 22 7 1 33 6 58 11 25 4 152 9 282 9 l237 1 15 -46z m-545 -50 c-13 -17
-13 -17 14 0 16 11 27 13 27 6 0 -6 6 -9 14 -6 10 4 12 0 9 -14 -5 -20 -23
-27 -23 -9 0 18 -20 11 -21 -7 0 -11 -3 -13 -6 -6 -3 8 -14 11 -27 7 -17 -4
-25 0 -30 12 -7 18 11 37 26 28 4 -3 8 3 8 12 0 14 3 15 12 6 8 -8 8 -15 -3
-29z m191 -2 c-10 -20 -30 -29 -30 -13 0 4 8 18 17 32 19 27 30 12 13 -19z
m263 22 c-3 -7 -9 -10 -14 -7 -14 8 -11 21 5 21 8 0 12 -6 9 -14z m-347 -19
c-11 -7 -22 -12 -25 -9 -2 3 4 12 15 19 10 8 21 12 24 9 3 -2 -4 -11 -14 -19z
m288 -9 c-4 -8 -1 -15 5 -15 6 0 11 7 11 15 0 19 7 19 26 1 8 -8 10 -17 5 -20
-5 -4 -11 -2 -13 3 -1 6 -24 -7 -51 -27 -26 -20 -43 -38 -37 -40 13 -5 13 -32
0 -32 -5 0 -10 7 -10 15 0 8 -5 15 -11 15 -7 0 -5 10 6 26 9 14 14 28 11 31
-3 3 9 14 27 23 17 10 33 18 34 19 1 0 0 -6 -3 -14z m806 -30 c19 -10 30 -24
31 -38 1 -12 2 -99 3 -194 1 -164 2 -173 25 -203 19 -27 22 -40 17 -76 -5 -41
-33 -100 -43 -91 -2 3 -6 14 -8 27 -3 17 -1 20 12 16 13 -6 14 -4 3 10 -9 9
-10 18 -4 22 14 10 11 47 -3 45 -17 -4 -41 68 -39 115 1 24 -1 45 -6 48 -5 3
-4 12 3 20 6 8 7 14 2 14 -11 0 -8 67 3 103 4 13 2 17 -5 13 -14 -9 -15 42 -1
64 5 9 5 17 0 20 -6 3 -11 18 -12 32 -2 20 -6 25 -17 19 -8 -5 -21 -2 -33 8
-10 9 -26 16 -36 16 -10 0 -16 6 -14 15 3 11 -1 11 -16 -3 -10 -9 -27 -17 -38
-17 -17 1 -16 3 6 21 21 18 34 20 83 15 32 -3 71 -13 87 -21z m608 1 c35 -18
45 -50 45 -139 -1 -59 -19 -121 -33 -112 -4 3 -9 26 -10 52 -1 27 -2 67 -3 91
-1 23 -6 42 -10 42 -5 0 -5 10 -1 22 6 20 5 21 -10 9 -10 -8 -16 -9 -16 -3 0
7 -7 9 -17 5 -11 -4 -14 -3 -9 5 4 7 4 13 -1 13 -47 7 -63 6 -63 -1 0 -5 -7
-7 -15 -4 -14 6 -13 8 2 20 17 13 17 14 -1 7 -14 -5 -17 -3 -11 7 10 17 111 8
153 -14z m1051 -4 c57 -27 64 -54 46 -169 -38 -243 -101 -474 -139 -515 -11
-12 -21 -27 -22 -34 -3 -22 -41 -52 -55 -44 -10 7 -10 11 1 25 7 9 19 14 27
11 10 -4 11 -1 4 12 -7 14 -5 21 10 30 11 7 21 29 25 52 4 22 10 40 15 40 5 0
9 11 9 25 0 14 5 25 10 25 6 0 10 7 10 16 0 9 -5 12 -12 8 -7 -4 -4 2 6 14 14
16 15 22 6 22 -9 0 -8 5 4 13 11 8 17 20 14 28 -3 8 1 28 9 46 8 20 9 34 3 38
-6 3 -10 11 -10 16 0 6 4 8 9 5 5 -3 12 1 15 10 3 8 2 12 -4 9 -14 -9 -12 29
2 43 6 6 13 18 14 26 1 7 5 24 9 36 5 15 4 20 -4 16 -6 -4 -11 -1 -11 8 0 8 4
17 10 21 5 3 6 13 3 21 -3 9 0 20 8 26 11 7 11 11 2 15 -7 2 -13 12 -13 22 0
22 -19 41 -42 41 -11 0 -15 5 -12 15 6 15 -1 18 -38 18 -10 0 -18 4 -18 10 0
5 -7 4 -15 -3 -11 -10 -19 -10 -27 -2 -6 6 -17 8 -26 5 -10 -5 -13 -2 -8 6 5
7 14 10 20 8 7 -3 19 -1 27 4 19 13 95 3 138 -19z m313 17 c11 -6 18 -7 15 -2
-9 14 70 15 95 2 16 -9 19 -8 13 2 -6 9 -2 10 16 6 13 -4 30 -7 37 -7 7 0 10
-4 7 -10 -3 -6 1 -7 9 -4 27 11 103 -43 133 -93 25 -44 28 -58 33 -183 4 -106
9 -142 23 -163 23 -35 22 -94 -3 -134 -21 -35 -58 -47 -45 -15 13 32 16 57 10
90 -6 35 -25 44 -25 12 0 -11 -5 -20 -11 -20 -7 0 -8 7 -4 18 10 25 6 283 -5
318 -20 60 -23 65 -37 60 -8 -3 -12 -2 -9 3 3 4 -3 16 -14 26 -11 10 -17 22
-13 28 3 6 1 7 -5 3 -7 -4 -12 -2 -12 4 0 6 -4 8 -10 5 -5 -3 -10 0 -10 7 0 9
-3 9 -10 -2 -8 -12 -10 -12 -10 5 0 17 -2 17 -10 5 -8 -13 -10 -12 -10 4 0 15
-3 16 -14 7 -11 -9 -15 -9 -18 0 -4 12 -103 14 -163 3 -20 -3 -25 -1 -19 8 9
14 -26 -10 -38 -27 -10 -14 -10 6 0 22 8 13 48 31 70 32 7 1 23 -4 34 -10z
m-2871 -20 c-14 -11 -30 -30 -36 -42 -6 -12 -17 -21 -23 -20 -6 2 -9 -3 -6
-10 2 -7 -4 -13 -16 -14 -11 -1 -20 4 -20 11 0 18 27 39 40 31 5 -3 10 -1 10
6 0 14 50 59 65 59 6 -1 -1 -10 -14 -21z m527 1 c62 -28 72 -59 72 -224 0
-126 1 -136 21 -150 31 -21 18 -47 -21 -42 -17 2 -34 7 -38 11 -4 3 -7 73 -8
154 0 118 -4 152 -16 170 -9 13 -14 31 -11 40 4 12 2 13 -4 3 -11 -14 -46 -5
-37 9 3 5 0 9 -5 9 -6 0 -11 -4 -11 -10 0 -5 -4 -10 -10 -10 -5 0 -7 8 -4 18
9 26 -41 -31 -76 -88 -14 -23 -23 -4 -10 21 17 30 30 79 22 78 -29 -4 -61 4
-66 16 -9 24 146 20 202 -5z m532 9 c0 22 106 9 131 -16 18 -17 19 -22 6 -34
-23 -23 -29 -66 -12 -83 13 -13 13 -16 -1 -30 -19 -19 -25 -20 -48 -3 -17 13
-17 15 3 55 12 23 19 42 15 42 -4 0 -1 6 5 14 9 11 8 15 -4 20 -11 4 -14 2 -9
-7 4 -6 -1 -4 -12 5 -18 16 -22 16 -42 2 -14 -9 -22 -11 -22 -4 0 6 -4 8 -10
5 -5 -3 -10 -2 -10 4 0 5 -3 18 -6 28 -5 15 -4 15 5 3 8 -12 11 -12 11 -1z
m1147 -15 c55 -41 61 -74 48 -245 -7 -98 -6 -108 11 -118 18 -11 18 -11 -1
-26 -13 -10 -21 -12 -23 -5 -3 8 -8 7 -18 -1 -11 -9 -14 -8 -15 7 0 11 -2 35
-4 54 -2 19 1 41 7 48 7 8 7 12 -2 12 -8 0 -10 7 -5 18 4 9 8 22 9 27 2 6 6
18 11 28 4 10 5 21 1 24 -3 4 -6 1 -6 -5 0 -7 -4 -12 -8 -12 -4 0 -6 16 -4 35
2 19 8 35 13 35 5 0 9 5 9 11 0 5 -4 7 -10 4 -5 -3 -10 1 -10 10 0 8 -9 23
-20 32 -15 13 -17 20 -8 31 10 11 6 12 -26 6 -37 -6 -38 -6 -31 17 3 13 3 19
-2 12 -7 -9 -90 -11 -113 -3 -3 2 -8 2 -12 2 -3 -1 -9 5 -12 14 -5 12 9 14 94
12 82 -3 103 -7 127 -24z m-2329 3 c15 6 15 5 3 -11 -10 -12 -16 -14 -22 -5
-9 15 -43 3 -36 -14 3 -8 -3 -13 -14 -13 -11 0 -19 4 -19 8 0 13 65 49 68 38
2 -5 11 -6 20 -3z m2876 -1 c-3 -8 -12 -17 -20 -20 -11 -4 -12 -2 -1 14 14 23
29 27 21 6z m-3074 -11 c-7 -8 -17 -15 -23 -15 -6 0 -2 7 9 15 25 19 30 19 14
0z m1904 -17 c-4 -6 -10 -5 -15 3 -14 22 -10 33 6 19 8 -7 12 -17 9 -22z
m-1475 -11 c-8 -7 -18 -20 -22 -29 -3 -10 -11 -18 -17 -18 -6 0 -2 14 10 30
12 17 27 30 33 30 7 -1 6 -5 -4 -13z m1674 -26 c-2 -13 3 -21 12 -21 8 0 15
-6 15 -12 0 -10 3 -9 9 1 5 7 13 11 19 7 5 -3 13 1 16 10 5 13 9 14 21 4 12
-10 15 -41 15 -158 0 -128 3 -151 21 -190 16 -32 20 -55 16 -88 -5 -49 -35
-93 -48 -72 -4 7 -4 18 2 24 5 6 7 18 3 27 -3 8 -1 18 5 22 6 3 11 12 11 18 0
7 -4 6 -10 -3 -8 -13 -10 -13 -10 2 0 9 -9 32 -20 51 -16 27 -20 50 -19 101 1
41 6 63 12 59 6 -4 7 -1 1 8 -11 17 -13 120 -2 113 14 -9 8 13 -7 26 -9 8 -30
11 -56 7 -38 -5 -40 -4 -46 24 -3 16 -10 32 -15 35 -11 7 32 33 47 29 6 -1 9
-12 8 -24z m-1323 -2 c0 -5 -4 -9 -10 -9 -5 0 -10 7 -10 16 0 8 5 12 10 9 6
-3 10 -10 10 -16z m-760 -14 c-7 -8 -17 -15 -23 -15 -5 0 -2 9 8 20 21 23 35
19 15 -5z m295 5 c-3 -5 -11 -10 -16 -10 -6 0 -7 5 -4 10 3 6 11 10 16 10 6 0
7 -4 4 -10z m471 -52 c-9 -12 -17 -34 -17 -48 -1 -19 -3 -20 -6 -6 -5 20 29
106 35 88 2 -7 -4 -22 -12 -34z m67 22 c-3 -12 -8 -19 -11 -16 -5 6 5 36 12
36 2 0 2 -9 -1 -20z m-753 -8 c0 -9 -7 -11 -19 -7 -11 3 -22 1 -26 -5 -3 -5
-15 -15 -26 -20 -16 -9 -19 -8 -16 12 5 32 87 51 87 20z m60 10 c0 -5 -11 -19
-24 -32 -24 -22 -25 -22 -23 -2 0 11 5 18 9 16 4 -3 8 2 8 10 0 9 7 16 15 16
8 0 15 -4 15 -8z m43 -9 c-23 -9 -14 -20 11 -16 21 4 24 2 19 -16 -5 -21 -3
-21 130 -21 l135 0 13 -32 c25 -60 11 -198 -20 -198 -10 0 -24 38 -22 58 1 6
-3 12 -9 12 -5 0 -10 -7 -10 -16 0 -8 -4 -12 -10 -9 -17 10 -11 33 10 40 30 9
28 62 -2 67 l-23 3 23 21 23 21 -23 -2 c-13 -1 -28 -3 -34 -4 -6 0 -16 -12
-22 -26 -6 -14 -18 -25 -27 -25 -8 0 -17 -11 -21 -25 -3 -14 -10 -25 -15 -25
-5 0 -4 12 2 27 7 20 6 29 -3 35 -10 8 -10 11 0 15 6 2 12 16 12 29 l0 25 -25
-26 c-29 -28 -47 -33 -39 -10 10 25 -37 13 -69 -17 -16 -15 -33 -26 -37 -23
-15 9 -18 44 -4 49 8 3 14 15 14 26 0 13 -4 18 -11 14 -6 -3 -3 8 5 25 9 17
22 31 29 30 9 0 9 -2 0 -6z m2277 3 c0 -2 -8 -10 -17 -17 -16 -13 -17 -12 -4
4 13 16 21 21 21 13z m-1679 -39 c-10 -9 -11 -8 -5 6 3 10 9 15 12 12 3 -3 0
-11 -7 -18z m2187 -61 c4 -6 -6 -25 -26 -46 l-34 -35 5 31 c3 17 9 55 13 85
l7 53 14 -38 c7 -21 16 -44 21 -50z m-2997 18 c-7 -24 -10 -26 -16 -11 -4 10
-2 24 5 32 18 21 21 14 11 -21z m38 5 c-19 -12 -24 -2 -8 17 9 11 14 13 17 4
3 -7 -2 -16 -9 -21z m719 13 c-4 -22 -24 -25 -24 -4 0 10 6 19 14 19 7 0 12
-7 10 -15z m569 -162 l3 -105 -20 24 c-18 21 -20 37 -20 145 l1 121 16 -40
c11 -26 18 -78 20 -145z m-1173 146 c-3 -9 -10 -16 -15 -16 -6 0 -5 9 1 21 13
24 24 20 14 -5z m537 1 c-10 -9 -11 -8 -5 6 3 10 9 15 12 12 3 -3 0 -11 -7
-18z m1349 13 c0 -5 -4 -10 -10 -10 -5 0 -10 5 -10 10 0 6 5 10 10 10 6 0 10
-4 10 -10z m-1965 -49 c-20 -20 -29 -8 -15 19 10 18 14 20 21 9 5 -9 3 -19 -6
-28z m-25 19 c0 -6 -11 -15 -24 -20 -33 -12 -42 -31 -22 -45 15 -11 15 -14 0
-26 -11 -9 -14 -22 -10 -41 3 -15 2 -28 -3 -28 -4 0 -9 32 -10 70 -2 55 1 70
12 70 8 0 20 7 27 15 14 17 30 20 30 5z m659 -22 c-8 -14 -14 -18 -17 -10 -4
13 17 46 25 38 3 -2 -1 -15 -8 -28z m2537 17 c16 -13 17 -16 4 -24 -9 -6 -16
-7 -18 -1 -2 5 -9 7 -17 4 -7 -3 -16 -1 -19 4 -3 6 -15 8 -26 5 -11 -3 -28 -2
-37 1 -15 6 -15 8 -3 16 23 15 94 12 116 -5z m-146 1 c0 -2 -8 -10 -17 -17
-16 -13 -17 -12 -4 4 13 16 21 21 21 13z m-2957 -33 c-4 -11 -3 -14 5 -9 17
10 15 0 -5 -32 -20 -30 -39 -52 -47 -52 -2 0 -4 12 -2 28 1 20 7 26 21 25 11
-1 14 0 8 3 -16 7 -17 26 -1 42 17 17 28 15 21 -5z m113 -10 c-10 -10 -19 5
-10 18 6 11 8 11 12 0 2 -7 1 -15 -2 -18z m1364 -14 c0 -12 10 -23 25 -29 l25
-9 -3 -148 c-2 -144 -8 -169 -32 -127 -5 11 -12 21 -15 24 -3 3 -6 16 -8 30
-2 19 0 22 8 10 15 -23 13 15 -2 40 -10 15 -10 27 -1 50 6 17 7 28 2 24 -5 -3
-8 8 -7 25 2 22 -5 35 -23 50 -20 15 -25 27 -21 50 6 43 52 52 52 10z m-1586
15 c9 -3 13 -10 10 -16 -3 -5 2 -15 12 -23 18 -13 18 -14 2 -20 -10 -4 -18
-16 -18 -26 0 -10 -6 -19 -14 -19 -16 0 -15 25 1 41 15 15 4 61 -14 55 -8 -3
-11 -1 -8 4 7 12 8 12 29 4z m256 2 c0 -2 -8 -10 -17 -17 -16 -13 -17 -12 -4
4 13 16 21 21 21 13z m115 -40 c-28 -37 -35 -42 -35 -27 0 11 53 72 58 66 2
-2 -8 -20 -23 -39z m-190 7 c-9 -8 -19 -13 -22 -9 -9 8 18 37 28 30 5 -3 2
-12 -6 -21z m255 17 c0 -5 -5 -10 -11 -10 -5 0 -7 5 -4 10 3 6 8 10 11 10 2 0
4 -4 4 -10z m385 -9 c3 -5 1 -12 -5 -16 -5 -3 -10 1 -10 9 0 18 6 21 15 7z
m-696 -40 c-12 -22 -30 -42 -41 -44 -19 -5 -16 -1 43 71 20 25 20 11 -2 -27z
m544 24 c-3 -9 -8 -14 -10 -11 -3 3 -2 9 2 15 9 16 15 13 8 -4z m-413 -15
c-24 -15 -37 -11 -16 5 11 8 22 12 25 9 3 -3 -1 -9 -9 -14z m1716 -8 c-17 -16
-18 -16 -5 5 7 12 15 20 18 17 3 -2 -3 -12 -13 -22z m-1772 3 c-4 -8 -11 -15
-16 -15 -6 0 -5 6 2 15 7 8 14 15 16 15 2 0 1 -7 -2 -15z m2936 5 c0 -5 -5
-10 -11 -10 -5 0 -7 5 -4 10 3 6 8 10 11 10 2 0 4 -4 4 -10z m255 0 c3 -5 1
-10 -4 -10 -6 0 -11 5 -11 10 0 6 2 10 4 10 3 0 8 -4 11 -10z m-2678 -22 c-3
-8 -6 -5 -6 6 -1 11 2 17 5 13 3 -3 4 -12 1 -19z m-29 -14 c1 -14 -2 -33 -8
-42 -7 -13 -9 -7 -10 26 0 45 14 59 18 16z m-535 -30 c-13 -12 -20 -25 -14
-28 5 -4 12 -2 16 4 10 17 26 0 20 -21 -6 -17 -1 -19 34 -19 l41 0 0 -80 c0
-75 -1 -80 -21 -80 -15 0 -19 4 -15 16 5 13 2 15 -15 11 -18 -5 -20 -2 -14 16
15 45 18 90 6 83 -6 -4 -11 -18 -11 -32 0 -13 -5 -24 -11 -24 -6 0 -9 7 -5 15
7 18 -5 19 -24 3 -8 -7 -7 -4 3 8 25 31 21 41 -7 15 -24 -22 -46 -14 -30 11 4
6 9 36 10 66 2 30 8 60 14 66 7 7 10 6 10 -2 0 -7 5 -12 10 -12 6 0 10 8 10
18 0 13 2 14 9 3 6 -10 1 -21 -16 -37z m59 24 c-7 -7 -12 -8 -12 -2 0 14 12
26 19 19 2 -3 -1 -11 -7 -17z m56 5 c2 -8 -5 -13 -17 -13 -12 0 -21 6 -21 16
0 18 31 15 38 -3z m542 -8 c0 -9 -6 -12 -16 -8 -13 5 -13 7 -2 14 17 11 18 11
18 -6z m-80 -13 c0 -9 -10 -23 -22 -31 -22 -13 -23 -13 -5 6 9 11 17 25 17 31
0 7 2 12 5 12 3 0 5 -8 5 -18z m2462 -24 c-3 -12 4 -19 21 -23 17 -5 24 -12
20 -22 -3 -8 -14 -13 -24 -10 -10 3 -20 0 -22 -7 -6 -17 -34 10 -41 39 -8 31
21 69 39 52 7 -6 10 -19 7 -29z m-3210 -6 c-21 -7 -13 -19 13 -19 15 0 31 9
40 24 18 26 35 22 35 -8 0 -11 -4 -17 -10 -14 -5 3 -10 1 -10 -5 0 -6 -4 -9
-10 -5 -9 6 -79 -63 -80 -78 0 -5 14 2 31 14 l31 22 -12 -24 c-15 -28 -41 -49
-52 -43 -15 9 -9 74 7 80 8 4 15 10 15 16 0 5 -4 7 -9 4 -9 -6 -21 16 -21 39
0 16 33 25 39 11 2 -6 -1 -12 -7 -14z m778 -34 c0 -5 -4 -8 -10 -8 -5 0 -10
10 -10 23 0 18 2 19 10 7 5 -8 10 -18 10 -22z m77 26 c-3 -3 -12 -4 -19 -1 -8
3 -5 6 6 6 11 1 17 -2 13 -5z m-727 -15 c0 -3 -9 -9 -19 -12 -13 -3 -18 0 -15
7 5 13 34 18 34 5z m583 -12 c4 3 7 1 7 -5 0 -14 -2 -14 -24 -6 -9 3 -16 11
-16 16 0 7 5 6 13 -1 8 -6 17 -8 20 -4z m254 -9 c-3 -8 -6 -5 -6 6 -1 11 2 17
5 13 3 -3 4 -12 1 -19z m1083 12 c0 -5 -5 -10 -11 -10 -5 0 -7 5 -4 10 3 6 8
10 11 10 2 0 4 -4 4 -10z m-1970 -20 c0 -5 -2 -10 -4 -10 -3 0 -8 5 -11 10 -3
6 -1 10 4 10 6 0 11 -4 11 -10z m3377 -12 c-3 -8 -6 -5 -6 6 -1 11 2 17 5 13
3 -3 4 -12 1 -19z m-2709 -23 c-1 -19 -5 -32 -10 -29 -4 3 -8 0 -8 -7 0 -7 -2
-10 -5 -8 -5 6 14 79 20 79 2 0 4 -16 3 -35z m-668 5 c0 -13 -81 -92 -88 -85
-3 3 5 17 19 32 13 14 31 34 39 44 17 20 30 24 30 9z m857 -12 c-3 -8 -6 -5
-6 6 -1 11 2 17 5 13 3 -3 4 -12 1 -19z m-133 -43 c-9 -14 -20 -25 -26 -25
-11 0 23 49 35 50 4 0 0 -11 -9 -25z m-694 0 c-7 -9 -15 -13 -17 -11 -7 7 7
26 19 26 6 0 6 -6 -2 -15z m-52 -32 c0 -21 -2 -23 -10 -9 -5 9 -6 21 -3 26 10
16 13 12 13 -17z m905 -4 c2 -8 6 -19 10 -26 14 -22 -14 -25 -34 -4 -17 18
-18 22 -5 27 9 3 12 13 9 22 -5 13 -3 14 6 6 7 -6 13 -18 14 -25z m-824 0 c-9
-17 -13 -19 -20 -8 -7 12 3 22 29 28 1 1 -2 -9 -9 -20z m3134 -27 c6 -29 5
-31 -12 -23 -26 14 -47 41 -32 41 7 0 10 4 7 9 -7 11 16 22 25 12 4 -3 9 -21
12 -39z m-2397 12 c-4 -9 -9 -15 -11 -12 -3 3 -3 13 1 22 4 9 9 15 11 12 3 -3
3 -13 -1 -22z m1629 -16 c28 -7 56 -16 62 -21 23 -17 4 -26 -33 -15 -20 5 -38
7 -41 4 -3 -2 -16 -1 -29 4 -13 5 -39 10 -58 12 -25 1 -36 8 -40 21 -4 17 0
19 42 13 26 -4 70 -12 97 -18z"/>
<path d="M2070 909 c0 -5 5 -7 10 -4 6 3 10 8 10 11 0 2 -4 4 -10 4 -5 0 -10
-5 -10 -11z"/>
<path d="M967 993 c-4 -3 -7 -11 -7 -17 0 -6 5 -5 12 2 6 6 9 14 7 17 -3 3 -9
2 -12 -2z"/>
<path d="M413 805 c-3 -9 -3 -18 0 -21 9 -9 27 6 27 22 0 19 -19 18 -27 -1z"/>
<path d="M592 798 c-18 -18 -15 -27 7 -21 22 6 37 33 18 33 -7 0 -18 -5 -25
-12z"/>
<path d="M4396 1184 c-69 -15 -139 -45 -151 -64 -13 -21 -135 -582 -135 -620
0 -51 43 -102 108 -127 95 -36 248 -16 305 41 16 17 19 16 52 -12 68 -60 209
-65 313 -11 l54 29 29 -24 c43 -37 93 -49 174 -44 49 3 89 13 121 29 l49 24 3
347 2 346 -25 30 c-57 68 -207 83 -311 31 l-49 -24 -5 -273 -5 -274 -59 236
c-36 145 -67 249 -80 269 -28 42 -106 83 -182 96 -78 14 -123 13 -208 -5z
m101 -27 c-2 -7 -20 -11 -40 -11 -21 1 -37 -2 -37 -7 0 -5 -7 -6 -16 -2 -12 4
-11 8 8 17 31 16 90 18 85 3z m57 0 c-2 -7 -15 -14 -29 -15 -18 -1 -23 2 -19
13 4 8 17 15 30 15 15 0 22 -5 18 -13z m96 -3 c65 -23 108 -52 125 -85 21 -39
157 -600 150 -617 -3 -7 -9 -10 -15 -7 -5 3 -10 0 -10 -7 -1 -26 -28 39 -40
95 -9 46 -15 57 -27 53 -13 -5 -14 -4 -4 8 10 12 10 29 -3 82 -8 37 -13 71
-10 75 2 4 0 11 -6 14 -8 5 -7 11 1 21 7 9 8 14 1 14 -5 0 -8 10 -4 22 3 14 1
19 -6 14 -8 -4 -10 3 -7 23 2 17 0 30 -3 30 -19 -3 -23 2 -12 16 9 11 9 15 1
15 -7 0 -9 5 -6 10 3 6 1 10 -6 10 -7 0 -9 10 -6 29 4 19 1 33 -8 41 -8 7 -13
16 -10 20 6 10 -35 56 -47 52 -5 -1 -12 7 -15 18 -3 13 -14 20 -29 20 -13 0
-24 5 -24 11 0 7 -10 9 -24 7 -29 -6 -51 5 -42 21 10 15 33 14 86 -5z m481 4
c0 -10 2 -10 6 0 7 17 41 15 89 -7 76 -35 74 -24 74 -399 0 -296 -2 -333 -16
-330 -8 2 -15 8 -15 13 -1 6 -5 15 -11 22 -9 11 -11 309 -4 469 4 78 -7 157
-22 162 -6 2 -8 10 -5 18 5 13 -7 18 -34 15 -7 -1 -13 2 -13 7 0 5 -22 8 -49
7 -28 -1 -47 3 -44 7 3 5 12 7 20 4 11 -4 13 -2 9 9 -3 8 -1 15 4 15 6 0 10
-6 11 -12z m-641 -262 c4 -12 11 -41 15 -66 4 -25 13 -52 21 -60 9 -10 10 -20
4 -30 -7 -11 -10 -12 -10 -2 0 7 -4 11 -9 7 -15 -8 -41 24 -41 51 0 13 -3 24
-7 24 -5 0 -8 22 -8 48 0 52 20 68 35 28z m-99 -315 c13 -22 26 -30 62 -35 45
-7 46 -8 53 -51 3 -25 4 -52 0 -60 -8 -22 -26 -19 -26 4 0 11 -5 23 -10 26 -6
4 -8 11 -5 16 4 5 1 9 -4 9 -6 0 -11 6 -11 14 0 9 -9 13 -25 12 -13 -2 -22 1
-19 5 3 5 -2 10 -10 10 -9 1 -22 2 -28 3 -16 1 -18 76 -3 76 5 0 17 -13 26
-29z m829 -51 c0 -5 -5 -10 -11 -10 -5 0 -7 5 -4 10 3 6 8 10 11 10 2 0 4 -4
4 -10z"/>
</g>
</svg>
